# AST/ASF file generated using VICON BodyLanguage
# -----------------------------------------------
:version 1.10
:name VICON
:units
  mass 1.0
  length 0.45
  angle deg
:documentation
   .ast/.asf automatically generated from VICON data using
   VICON BodyBuilder and BodyLanguage model FoxedUp or BRILLIANT.MOD
:root
   order TX TY TZ RX RY RZ
   axis XYZ
   position 0 0 0  
   orientation 0 0 0 
:bonedata
  begin
     id 1 
     name lhipjoint
     direction 0.624716 -0.669793 0.401383 
     length 2.38238 
     axis 0 0 0  XYZ
  end
  begin
     id 2 
     name lfemur
     direction 0.34202 -0.939693 0  
     length 6.4574  
     axis 0 0 20  XYZ
    dof rx ry rz
    limits (-160.0 20.0)
           (-70.0 70.0)
           (-60.0 70.0)
  end
  begin
     id 3 
     name ltibia
     direction 0.34202 -0.939693 0   
     length 7.68739   
     axis 0 0 20   XYZ
    dof rx
    limits (-10.0 170.0)
  end
  begin
     id 4 
     name lfoot
     direction 0.0681309 -0.187188 0.979959   
     length 2.46615   
     axis -90 7.62852e-016 20   XYZ
    dof rx rz
    limits (-45.0 90.0)
           (-70.0 20.0)
  end
  begin
     id 5 
     name ltoes
     direction 1.53566e-011 -4.21819e-011 1   
     length 1.2376   
     axis -90 7.62852e-016 20   XYZ
    dof rx
    limits (-90.0 20.0)
  end
  begin
     id 6 
     name rhipjoint
     direction -0.644473 -0.655875 0.393043   
     length 2.43293  
     axis 0 0 0  XYZ 
  end
  begin
     id 7 
     name rfemur
     direction -0.34202 -0.939693 0   
     length 6.7025   
     axis 0 0 -20   XYZ
    dof rx ry rz
    limits (-160.0 20.0)
           (-70.0 70.0)
           (-70.0 60.0)
  end
  begin
     id 8 
     name rtibia
     direction -0.34202 -0.939693 0   
     length 7.80547   
     axis 0 0 -20   XYZ
    dof rx
    limits (-10.0 170.0)
 end
 begin
     id 9 
     name rfoot
     direction -0.0756734 -0.207911 0.975216   
     length 2.40315  
     axis -90 -7.62852e-016 -20   XYZ
    dof rx rz
    limits (-45.0 90.0)
           (-20.0 70.0)
  end
  begin
     id 10 
     name rtoes
     direction -1.5353e-011 -4.21879e-011 1   
     length 1.20477   
     axis -90 -7.62852e-016 -20   XYZ
    dof rx
    limits (-90.0 20.0)
  end
  begin
     id 11 
     name lowerback
     direction 0.0160353 0.987463 -0.157037   
     length 2.18572   
     axis 0 0 0   XYZ
    dof rx ry rz
    limits (-20.0 45.0)
           (-30.0 30.0)
           (-30.0 30.0)
  end
  begin
     id 12 
     name upperback
     direction -0.00499661 0.999756 0.0215076   
     length 2.18016   
     axis 0 0 0   XYZ
    dof rx ry rz
    limits (-20.0 45.0)
           (-30.0 30.0)
           (-30.0 30.0)
  end
  begin
     id 13 
     name thorax
     direction -0.00921346 0.995333 0.0960619   
     length 2.24923   
     axis 0 0 0   XYZ
    dof rx ry rz
    limits (-20.0 45.0)
           (-30.0 30.0)
           (-30.0 30.0)
  end
  begin
     id 14 
     name lowerneck
     direction 0.0274184 0.991181 0.12965   
     length 1.70911   
     axis 0 0 0   XYZ
    dof rx ry rz
    limits (-20.0 45.0)
           (-30.0 30.0)
           (-30.0 30.0)
  end
  begin
     id 15 
     name upperneck
     direction 0.0015627 0.999959 -0.00893559   
     length 1.69312   
     axis 0 0 0   XYZ
    dof rx ry rz
    limits (-20.0 45.0)
           (-30.0 30.0)
           (-30.0 30.0)
  end
  begin
     id 16
     name head
     direction -0.00230242 0.999856 -0.0168327  
     length 1.80241  
     axis 0 0 0   XYZ
    dof rx ry rz
    limits (-20.0 45.0)
           (-30.0 30.0)
           (-30.0 30.0)
  end
  begin
     id 17 
     name lclavicle
     direction 0.955523 0.290741 -0.0494489  
     length 3.84275  
     axis 0 0 0   XYZ
    dof ry rz
    limits (-20.0 10.0)
           (0.0 20.0)
  end
  begin
     id 18 
     name lhumerus
     direction 1 -4.48967e-011 -3.18382e-028   
     length 5.17714   
     axis 180 -30 -90   XYZ
    dof rx ry rz
    limits (-60.0 90.0)
           (-90.0 90.0)
           (-90.0 90.0)
  end
  begin
     id 19
     name lradius
     direction 1 -4.48968e-011 -2.22911e-027   
     length 3.43679   
     axis 180 -30 -90   XYZ
    dof rx
    limits (-10.0 170.0)
  end
  begin
     id 20
     name lwrist
     direction 1 -4.48951e-011 -6.32245e-027   
     length 1.7184   
     axis 3.57107e-015 90 90   XYZ
    dof ry
    limits (-180.0 0.0)
 end
  begin
     id 21 
     name lhand
     direction 1 -4.48924e-011 -1.26431e-026   
     length 0.573117   
     axis 8.06912e-015 90 90   XYZ
    dof rx rz
    limits (-90.0 90.0)
           (-45.0 45.0)
  end
  begin
     id 22 
     name lfingers
     direction 1 -4.49001e-011 -2.52965e-026   
     length 0.462062   
     axis 1.61381e-014 90 90   XYZ
    dof rx
    limits (0.0 90.0)
  end
  begin
     id 23
     name lthumb
     direction 0.707107 -6.35008e-011 0.707107   
     length 0.663431   
     axis -90 45 -1.62303e-014   XYZ
    dof rx rz
    limits (-45.0 45.0)
           (-45.0 45.0)
  end
  begin
     id 24 
     name rclavicle
     direction -0.963917 0.256881 -0.0698287   
     length 3.73057  
     axis 0 0 0   XYZ 
    dof ry rz
    limits (-10.0 20.0)
           (-20.0 0.0)
  end
  begin
     id 25 
     name rhumerus
     direction -1 -4.48962e-011 -2.73982e-027  
     length 5.23908   
     axis 180 30 90   XYZ
    dof rx ry rz
    limits (-90.0 60.0)
           (-90.0 90.0)
           (-90.0 90.0)
  end
  begin
     id 26 
     name rradius
     direction -1 -4.48968e-011 -4.33218e-027   
     length 3.46485   
     axis 180 30 90   XYZ
    dof rx
    limits (-10.0 170.0)
  end
  begin
     id 27 
     name rwrist
     direction -1 -4.48989e-011 -6.32372e-027   
     length 1.73243   
     axis 3.57107e-015 -90 -90   XYZ
    dof ry
    limits (-180.0 0.0)
  end
  begin
     id 28
     name rhand
     direction -1 -4.48948e-011 -1.26448e-026   
     length 0.608752   
     axis 8.06912e-015 -90 -90   XYZ
    dof rx rz
    limits (-90.0 90.0)
           (-45.0 45.0)
  end
  begin
     id 29
     name rfingers
     direction -1 -4.48962e-011 -2.52913e-026   
     length 0.490792   
     axis 1.61381e-014 -90 -90   XYZ
    dof rx
    limits (0.0 90.0)
  end
  begin
     id 30
     name rthumb
     direction -0.707107 -6.34878e-011 0.707107   
     length 0.704682   
     axis -90 -45 1.62303e-014   XYZ
    dof rx rz
    limits (-45.0 45.0)
           (-45.0 45.0)
  end
:hierarchy
  begin
    root lhipjoint rhipjoint lowerback
    lhipjoint lfemur
    lfemur ltibia
    ltibia lfoot
    lfoot ltoes
    rhipjoint rfemur
    rfemur rtibia
    rtibia rfoot
    rfoot rtoes
    lowerback upperback
    upperback thorax
    thorax lowerneck lclavicle rclavicle
    lowerneck upperneck
    upperneck head
    lclavicle lhumerus
    lhumerus lradius
    lradius lwrist
    lwrist lhand lthumb
    lhand lfingers
    rclavicle rhumerus
    rhumerus rradius
    rradius rwrist
    rwrist rhand rthumb
    rhand rfingers
  end

#!OML:ASF G:\JayActor3\Patient Classification 1\Patient 1\Session 6\male.ASF
:FULLY-SPECIFIED
:DEGREES
493
root 38.1905 14.5927 0.475159 180.727 -34.9976 -178.309
lowerback 25.6004 0.446153 -1.69032
upperback 9.3098 -1.44924 -1.41514
thorax -3.91584 -1.34882 -0.118261
lowerneck 9.09292 3.27073 7.60162
upperneck 2.34193 4.83958 -8.06698
head -0.436024 2.51494 -4.16432
rclavicle 8.82604e-014 -4.37326e-014
rhumerus -32.2598 8.76259 -88.1126
rradius 126.919
rwrist 18.7055
rhand 14.7945 -20.0264
rfingers 7.12502
rthumb 39.6582 -45.3546
lclavicle 8.82604e-014 -4.37326e-014
lhumerus -37.4249 -4.22911 85.0027
lradius 132.537
lwrist 4.98322
lhand 7.32375 38.8682
lfingers 7.12502
lthumb 32.5838 65.9553
rfemur -74.4695 -15.8034 26.396
rtibia 111.353
rfoot -18.7362 -6.01468
rtoes -17.6784
lfemur -36.7031 4.29647 -22.3044
ltibia 61.3374
lfoot -25.4274 18.9684
ltoes -6.22657
494
root 38.1369 14.5936 0.406537 180.637 -34.9302 -178.339
lowerback 25.6328 0.453735 -1.65171
upperback 9.44363 -1.46449 -1.49059
thorax -3.78688 -1.36863 -0.219521
lowerneck 9.36254 3.23068 7.64185
upperneck 2.52435 4.79805 -8.06376
head -0.426757 2.49314 -4.17536
rclavicle 1.35174e-014 -4.53229e-014
rhumerus -32.2226 8.74343 -88.144
rradius 126.894
rwrist 18.672
rhand 14.8406 -20.0125
rfingers 7.12502
rthumb 39.7016 -45.3279
lclavicle 1.35174e-014 -4.53229e-014
lhumerus -37.3425 -4.39495 85.0052
lradius 132.406
lwrist 4.95643
lhand 7.34053 38.8563
lfingers 7.12502
lthumb 32.5998 65.9402
rfemur -75.0579 -15.4709 26.618
rtibia 110.294
rfoot -19.0002 -6.19691
rtoes -17.8861
lfemur -36.172 4.09643 -22.3384
ltibia 61.3638
lfoot -25.8168 19.4115
ltoes -6.2598
495
root 38.0821 14.596 0.336965 180.549 -34.8531 -178.375
lowerback 25.6458 0.455129 -1.63059
upperback 9.57268 -1.48897 -1.55156
thorax -3.65307 -1.39278 -0.292893
lowerneck 9.61291 3.20181 7.66459
upperneck 2.73627 4.76797 -8.07821
head -0.403278 2.4762 -4.1883
rclavicle -7.55382e-014 8.5875e-014
rhumerus -32.1776 8.7703 -88.1573
rradius 126.869
rwrist 18.6261
rhand 14.8984 -19.9946
rfingers 7.12502
rthumb 39.756 -45.2938
lclavicle -7.55382e-014 8.5875e-014
lhumerus -37.2812 -4.501 85.029
lradius 132.278
lwrist 4.92532
lhand 7.3537 38.8565
lfingers 7.12502
lthumb 32.6123 65.9377
rfemur -75.5204 -15.1411 26.8001
rtibia 109.095
rfoot -19.2184 -6.41517
rtoes -18.1462
lfemur -35.6087 3.87909 -22.3822
ltibia 61.3518
lfoot -26.1901 19.8709
ltoes -6.27773
496
root 38.0261 14.6 0.266441 180.471 -34.769 -178.427
lowerback 25.6332 0.444468 -1.64452
upperback 9.69935 -1.53407 -1.5932
thorax -3.50833 -1.4275 -0.320135
lowerneck 9.85808 3.1987 7.62547
upperneck 2.95351 4.76432 -8.09353
head -0.376058 2.47133 -4.18958
rclavicle 4.77083e-015 1.59028e-015
rhumerus -32.1155 8.87147 -88.1494
rradius 126.838
rwrist 18.5622
rhand 14.967 -19.983
rfingers 7.12502
rthumb 39.8206 -45.2629
lclavicle 4.77083e-015 1.59028e-015
lhumerus -37.2416 -4.51845 85.082
lradius 132.156
lwrist 4.89079
lhand 7.37956 38.8788
lfingers 7.12502
lthumb 32.6369 65.9549
rfemur -75.863 -14.8266 26.935
rtibia 107.765
rfoot -19.3758 -6.67235
rtoes -18.4478
lfemur -35.0143 3.63729 -22.4427
ltibia 61.2966
lfoot -26.5485 20.3365
ltoes -6.28007
497
root 37.969 14.6057 0.194829 180.404 -34.6738 -178.497
lowerback 25.5945 0.421473 -1.69564
upperback 9.8246 -1.60102 -1.61802
thorax -3.35136 -1.47372 -0.302617
lowerneck 10.111 3.22765 7.50738
upperneck 3.15471 4.79368 -8.09524
head -0.354543 2.48179 -4.17163
rclavicle 2.70347e-014 -2.70347e-014
rhumerus -32.0367 9.04807 -88.124
rradius 126.801
rwrist 18.4769
rhand 15.0435 -19.9822
rfingers 7.12502
rthumb 39.8926 -45.2406
lclavicle 2.70347e-014 -2.70347e-014
lhumerus -37.2231 -4.43693 85.1551
lradius 132.04
lwrist 4.85173
lhand 7.43693 38.9214
lfingers 7.12502
lthumb 32.6915 65.9862
rfemur -76.0875 -14.527 27.0224
rtibia 106.312
rfoot -19.4644 -6.96513
rtoes -18.7309
lfemur -34.3877 3.37905 -22.5203
ltibia 61.1958
lfoot -26.8862 20.8015
ltoes -6.29074
498
root 37.911 14.613 0.122106 180.349 -34.5685 -178.587
lowerback 25.5364 0.389498 -1.78559
upperback 9.94582 -1.68571 -1.62532
thorax -3.18801 -1.52949 -0.239805
lowerneck 10.3802 3.28811 7.30842
upperneck 3.32403 4.85489 -8.0773
head -0.345853 2.50715 -4.13256
rclavicle 3.4191e-014 2.78299e-014
rhumerus -31.9478 9.28982 -88.0792
rradius 126.755
rwrist 18.3777
rhand 15.1257 -19.9932
rfingers 7.12502
rthumb 39.9699 -45.2283
lclavicle 3.4191e-014 2.78299e-014
lhumerus -37.2294 -4.27028 85.2546
lradius 131.93
lwrist 4.81167
lhand 7.50169 38.9682
lfingers 7.12502
lthumb 32.7531 66.0202
rfemur -76.1975 -14.2471 27.0633
rtibia 104.743
rfoot -19.4813 -7.27809
rtoes -18.938
lfemur -33.7297 3.10836 -22.6171
ltibia 61.0474
lfoot -27.2021 21.2628
ltoes -6.31392
499
root 37.852 14.6219 0.0480979 180.3 -34.4489 -178.693
lowerback 25.4611 0.356162 -1.88577
upperback 10.0665 -1.7733 -1.6302
thorax -3.01642 -1.58719 -0.168619
lowerneck 10.6512 3.36398 7.08321
upperneck 3.46779 4.93196 -8.05104
head -0.345348 2.54007 -4.08649
rclavicle 1.15295e-014 2.14687e-014
rhumerus -31.8565 9.54561 -88.0318
rradius 126.703
rwrist 18.2801
rhand 15.2005 -20.0202
rfingers 7.12502
rthumb 40.0404 -45.2341
lclavicle 1.15295e-014 2.14687e-014
lhumerus -37.2476 -4.07 85.3602
lradius 131.819
lwrist 4.77735
lhand 7.55208 39.0097
lfingers 7.12502
lthumb 32.801 66.0517
rfemur -76.1888 -13.9842 27.0621
rtibia 103.062
rfoot -19.4071 -7.62605
rtoes -19.0998
lfemur -33.0352 2.8372 -22.7296
ltibia 60.8506
lfoot -27.4939 21.7196
ltoes -6.34864
500
root 37.7922 14.6324 -0.0273687 180.25 -34.314 -178.807
lowerback 25.3774 0.328077 -1.98115
upperback 10.1832 -1.85198 -1.63778
thorax -2.84517 -1.64037 -0.106129
lowerneck 10.9105 3.44135 6.87458
upperneck 3.60163 5.01108 -8.02738
head -0.345504 2.57403 -4.04476
rclavicle 1.63003e-014 -5.96354e-014
rhumerus -31.7734 9.78117 -87.9893
rradius 126.647
rwrist 18.1913
rhand 15.2681 -20.0541
rfingers 7.12502
rthumb 40.1039 -45.2487
lclavicle 1.63003e-014 -5.96354e-014
lhumerus -37.2786 -3.87304 85.4647
lradius 131.703
lwrist 4.74878
lhand 7.58059 39.0448
lfingers 7.12502
lthumb 32.8282 66.0811
rfemur -76.0597 -13.735 27.0263
rtibia 101.274
rfoot -19.2606 -7.99609
rtoes -19.1479
lfemur -32.3028 2.58307 -22.8513
ltibia 60.6045
lfoot -27.7598 22.1618
ltoes -6.39759
501
root 37.7317 14.6446 -0.104373 180.201 -34.1682 -178.933
lowerback 25.2857 0.310873 -2.06192
upperback 10.298 -1.91292 -1.65495
thorax -2.67276 -1.6844 -0.0677054
lowerneck 11.145 3.50697 6.71814
upperneck 3.73572 5.07915 -8.01551
head -0.340653 2.60291 -4.01663
rclavicle -3.18055e-015 -7.95139e-016
rhumerus -31.6999 9.96411 -87.9578
rradius 126.588
rwrist 18.127
rhand 15.3344 -20.0833
rfingers 7.12502
rthumb 40.1664 -45.259
lclavicle -3.18055e-015 -7.95139e-016
lhumerus -37.314 -3.71513 85.5607
lradius 131.579
lwrist 4.72667
lhand 7.58136 39.0717
lfingers 7.12502
lthumb 32.8289 66.1078
rfemur -75.8123 -13.5034 26.9538
rtibia 99.3825
rfoot -19.0599 -8.38933
rtoes -19.1393
lfemur -31.5314 2.35093 -22.9855
ltibia 60.3078
lfoot -28.0011 22.5789
ltoes -6.42665
502
root 37.6705 14.6584 -0.183061 180.155 -34.0173 -179.074
lowerback 25.1901 0.305824 -2.1225
upperback 10.4074 -1.95291 -1.68489
thorax -2.50548 -1.71703 -0.0604229
lowerneck 11.3385 3.55177 6.63717
upperneck 3.89271 5.12722 -8.02332
head -0.320456 2.62218 -4.00816
rclavicle 1.74931e-014 -3.10104e-014
rhumerus -31.6468 10.0777 -87.9389
rradius 126.532
rwrist 18.0938
rhand 15.3931 -20.1046
rfingers 7.12502
rthumb 40.2215 -45.2634
lclavicle 1.74931e-014 -3.10104e-014
lhumerus -37.353 -3.61608 85.6428
lradius 131.446
lwrist 4.71183
lhand 7.577 39.0944
lfingers 7.12502
lthumb 32.8247 66.1315
rfemur -75.4473 -13.2967 26.8416
rtibia 97.3923
rfoot -18.8504 -8.78073
rtoes -19.0711
lfemur -30.7197 2.14427 -23.1356
ltibia 59.958
lfoot -28.219 22.9651
ltoes -6.43209
503
root 37.6088 14.674 -0.263448 180.11 -33.8682 -179.22
lowerback 25.0904 0.30426 -2.16968
upperback 10.5077 -1.98305 -1.71597
thorax -2.34681 -1.74352 -0.0646964
lowerneck 11.4956 3.58315 6.60502
upperneck 4.07427 5.16226 -8.0496
head -0.285188 2.63491 -4.01387
rclavicle 3.33958e-014 2.94201e-014
rhumerus -31.6143 10.1546 -87.9225
rradius 126.483
rwrist 18.0805
rhand 15.454 -20.12
rfingers 7.12502
rthumb 40.2789 -45.2613
lclavicle 3.33958e-014 2.94201e-014
lhumerus -37.4018 -3.5449 85.7177
lradius 131.31
lwrist 4.70898
lhand 7.60473 39.1471
lfingers 7.12502
lthumb 32.8511 66.1786
rfemur -74.9695 -13.115 26.7017
rtibia 95.3046
rfoot -18.672 -9.16805
rtoes -19.0395
lfemur -29.8714 1.9667 -23.2912
ltibia 59.554
lfoot -28.4099 23.3238
ltoes -6.46732
